#!OML:ASF H:\GeneralSubjects\Female5\Project 1\Capture day 1\Session 1\Female5.ASF
:FULLY-SPECIFIED
:DEGREES
235
root 7.55544 16.218 3.7988 -210.62 -68.4079 -139.914
lowerback 16.2691 2.19713 -3.16026
upperback -6.79282 3.1944 7.85452
thorax -17.9585 2.41074 10.2035
lowerneck -14.7619 -13.5039 -14.4786
upperneck 28.6563 -19.8518 9.18391
head 14.822 -9.39287 2.26013
rclavicle 6.83322e-015 -4.05521e-014
rhumerus -47.1406 30.5835 -58.9868
rradius 76.634
rwrist 6.24106
rhand -26.2855 -15.6388
rfingers 7.12502
rthumb 0.269984 -45.6183
lclavicle 6.83322e-015 -4.05521e-014
lhumerus -66.471 -12.9773 86.9577
lradius 102.658
lwrist -25.8217
lhand -29.1699 21.6606
lfingers 7.12502
lthumb -2.51577 51.6255
rfemur -50.4491 -8.02779 33.4194
rtibia 85.3672
rfoot 164.099 56.2591
rtoes -38.7011
lfemur -15.7192 -16.6417 -16.4376
ltibia 20.2651
lfoot -27.3691 7.0997
ltoes -50.4348
236
root 7.53709 16.2833 3.80477 -214.094 -68.1025 -137.406
lowerback 17.0357 2.15261 -3.04374
upperback -6.43066 3.26626 8.68241
thorax -17.7127 2.37803 10.5909
lowerneck -14.601 -13.4179 -14.3167
upperneck 28.8016 -19.93 9.3702
head 14.8702 -9.40371 2.30218
rclavicle -1.87572e-014 -3.18055e-015
rhumerus -47.5265 29.8559 -57.305
rradius 75.2924
rwrist 5.46092
rhand -26.2341 -16.893
rfingers 7.12502
rthumb 0.319634 -46.8725
lclavicle -1.87572e-014 -3.18055e-015
lhumerus -66.1428 -15.0724 86.1163
lradius 104.628
lwrist -25.0026
lhand -29.9886 21.9409
lfingers 7.12502
lthumb -3.30646 51.895
rfemur -52.9443 -7.80477 33.9077
rtibia 77.0218
rfoot 174.838 11.775
rtoes -40.5655
lfemur -14.0202 -17.061 -15.7288
ltibia 19.6112
lfoot -27.6301 6.00005
ltoes -48.4345
237
root 7.51994 16.3467 3.80521 -217.3 -67.8057 -135.111
lowerback 17.7798 2.14362 -3.01423
upperback -5.92259 3.30918 9.25881
thorax -17.6189 2.41038 11.2141
lowerneck -16.3978 -13.4356 -13.8667
upperneck 30.3406 -19.9067 8.71765
head 15.8191 -9.31446 1.84501
rclavicle -3.21161e-014 1.55052e-014
rhumerus -47.9312 29.1851 -55.6296
rradius 73.8608
rwrist 4.76403
rhand -26.4604 -17.7865
rfingers 7.12502
rthumb 0.10111 -47.7662
lclavicle -3.21161e-014 1.55052e-014
lhumerus -65.563 -17.3425 84.9213
lradius 106.466
lwrist -24.2266
lhand -30.6412 21.6825
lfingers 7.12502
lthumb -3.93661 51.6258
rfemur -55.2264 -7.64807 34.2197
rtibia 71.1251
rfoot 174.449 10.9005
rtoes -42.2753
lfemur -12.5127 -17.1456 -15.0538
ltibia 19.1441
lfoot -27.5936 5.06842
ltoes -47.5056
238
root 7.50788 16.403 3.80189 -220.318 -67.4222 -132.86
lowerback 18.3862 2.12391 -2.99962
upperback -5.47758 3.32798 9.84389
thorax -17.5173 2.43275 11.8754
lowerneck -15.2426 -13.3305 -13.927
upperneck 29.7765 -20.0302 9.24282
head 15.4026 -9.38751 2.12035
rclavicle -6.19804e-015 8.34896e-014
rhumerus -48.3089 28.8724 -54.1121
rradius 72.2904
rwrist 3.93885
rhand -26.7909 -18.204
rfingers 7.12502
rthumb -0.218088 -48.1836
lclavicle -6.19804e-015 8.34896e-014
lhumerus -65.0533 -19.7803 83.4684
lradius 108.381
lwrist -23.3012
lhand -31.1005 21.4485
lfingers 7.12502
lthumb -4.38019 51.3832
rfemur -57.7276 -7.27903 34.4216
rtibia 65.9951
rfoot 174.145 10.756
rtoes -43.4809
lfemur -11.3076 -17.0948 -14.2173
ltibia 18.8215
lfoot -27.4096 4.73151
ltoes -48.2838
239
root 7.49805 16.4524 3.79729 -223.272 -67.0922 -130.776
lowerback 19.0821 2.08814 -3.11485
upperback -5.01686 3.2882 10.4233
thorax -17.4446 2.44207 12.6352
lowerneck -15.3483 -13.2147 -13.8461
upperneck 30.0482 -19.982 9.33076
head 15.5487 -9.34575 2.14611
rclavicle -1.75086e-014 1.04163e-013
rhumerus -48.7248 28.9453 -52.7661
rradius 70.6395
rwrist 2.87843
rhand -27.2383 -18.7909
rfingers 7.12502
rthumb -0.650257 -48.7697
lclavicle -1.75086e-014 1.04163e-013
lhumerus -64.3232 -21.9907 81.751
lradius 110.294
lwrist -22.6456
lhand -30.9501 21.259
lfingers 7.12502
lthumb -4.23497 51.1967
rfemur -60.1687 -6.97629 34.1815
rtibia 62.1106
rfoot 174.567 10.6526
rtoes -48.5459
lfemur -9.9976 -17.1216 -13.5044
ltibia 18.432
lfoot -27.2518 4.70691
ltoes -49.4076
